# This file uses centimeters as units for non-parametric coordinates.

mtllib RoofWindow.mtl
g default
v -5.417304 38.430748 -5.355010
v -5.417304 38.430748 -3.433913
v -5.417304 39.024399 -5.260984
v -5.417304 39.559940 -4.988113
v -5.417304 39.984947 -4.563106
v -5.417304 40.257820 -4.027565
v -5.417304 40.351845 -3.433913
v -5.417304 39.024399 -1.606842
v -5.417304 38.430748 -1.512816
v -5.417304 40.257820 -2.840261
v -5.417304 39.559940 -1.879713
v -5.417304 39.984947 -2.304721
v -6.978622 42.140060 -2.556897
v -6.978622 43.153126 -3.373398
v -6.978622 42.140068 -4.179480
v -0.860460 43.153126 -3.373398
v -0.860460 42.140060 -2.556897
v -0.860460 42.140068 -4.179480
v -6.978622 39.496784 -7.288198
v -6.978622 39.496784 -6.580793
v -7.729448 39.496784 -6.580793
v -7.729448 39.496784 -7.288198
v -7.729448 40.566265 -5.479640
v -7.729448 40.566269 -5.945331
v -6.978622 38.430748 -5.355010
v -6.978622 36.766983 -5.355010
v -5.417304 36.766983 -5.355010
v -6.978622 40.566269 -5.945331
v -6.978622 40.566265 -5.479640
v -0.860460 39.496784 -6.580793
v -0.860460 35.229118 -6.580793
v -6.978622 35.229118 -6.580793
v -6.978622 39.024399 -5.260984
v -5.417304 36.766983 -3.433913
v -0.860460 35.229115 -0.214155
v -6.978622 35.229115 -0.214155
v -7.729448 42.140064 -4.359772
v -7.729448 42.140068 -4.179480
v -0.860460 39.496784 -7.288198
v -6.978622 39.984947 -4.563106
v -6.978622 39.559940 -4.988113
v -6.978622 42.140064 -4.359772
v -0.860460 40.566269 -5.945331
v -6.978622 40.257820 -4.027565
v -5.417304 36.766983 -1.512816
v -6.978622 36.766983 -1.512816
v -6.978622 38.430748 -1.512816
v -6.978622 40.351845 -3.433913
v -6.978622 39.024399 -1.606842
v -6.978622 40.257820 -2.840261
v -6.978622 40.566265 -1.288450
v -6.978622 39.984947 -2.304721
v -6.978622 39.559940 -1.879713
v -7.729448 43.153126 -3.373398
v -6.978622 43.426807 -3.358174
v -7.729448 43.426807 -3.358174
v -7.729448 40.566265 -0.771022
v -7.729448 40.566265 -1.288450
v -7.729448 39.496780 -0.214155
v -7.729448 39.496780 0.571847
v -7.729448 42.140060 -2.556897
v -7.729448 42.140064 -2.356584
v -6.978622 39.496780 -0.214155
v -7.729448 43.298134 -3.258014
v -0.109633 39.496784 -7.288198
v -0.109633 39.496784 -6.580793
v -0.860460 42.140064 -4.359772
v -6.978622 39.496780 0.571847
v -6.978622 40.566265 -0.771022
v -6.978622 42.140064 -2.356584
v -6.978622 43.298134 -3.258014
v -0.109633 40.566269 -5.945331
v -0.860460 39.496780 -0.214155
v -0.860460 40.566265 -5.479640
v -0.109633 40.566265 -5.479640
v -0.860460 43.426807 -3.358174
v -0.109633 42.140064 -4.359772
v -0.860460 39.496780 0.571847
v -0.860460 40.566265 -1.288450
v -0.860460 40.566265 -0.771022
v -0.860460 42.140064 -2.356584
v -0.860460 43.298134 -3.258014
v -0.109633 42.140068 -4.179480
v -0.109633 43.153126 -3.373398
v -0.109633 43.426807 -3.358174
v -0.109633 40.566265 -1.288450
v -0.109633 39.496780 -0.214155
v -0.109633 42.140060 -2.556897
v -0.109633 39.496780 0.571847
v -0.109633 40.566265 -0.771022
v -0.109633 42.140064 -2.356584
v -0.109633 43.298134 -3.258014
v -6.978622 39.496784 -5.020293
v -6.978622 39.496780 -1.847532
vt 0.500000 -0.000000
vt 0.500000 0.156250
vt 0.548284 0.007647
vt 0.591842 0.029841
vt 0.626409 0.064408
vt 0.648603 0.107966
vt 0.656250 0.156250
vt 0.548284 0.304853
vt 0.500000 0.312500
vt 0.648603 0.204534
vt 0.591841 0.282659
vt 0.626409 0.248091
vt 0.237500 0.237500
vt 0.137343 0.235757
vt 0.136250 0.136250
vt 0.862656 0.235757
vt 0.762500 0.237500
vt 0.863750 0.136250
vt 0.862500 0.250000
vt 0.750000 0.250000
vt 0.750000 0.250000
vt 0.862500 0.250000
vt 0.147500 0.022500
vt 0.143000 0.068000
vt 0.125000 0.050000
vt 0.125000 0.000000
vt 0.439242 0.556946
vt 0.439242 0.556946
vt 0.500000 -0.000000
vt 0.762500 0.237500
vt 0.862656 0.235757
vt 0.862656 0.235757
vt 0.762500 0.237500
vt 0.875000 0.050000
vt 0.875000 0.125000
vt 0.875000 0.125000
vt 0.875000 0.050000
vt 0.375000 0.705000
vt 0.852500 0.022500
vt 0.852500 0.022500
vt 0.375000 0.705000
vt 0.412500 0.616289
vt 0.425000 0.616289
vt 0.425000 0.312500
vt 0.412500 0.312500
vt 0.500000 0.156250
vt 0.650000 0.225000
vt 0.375000 0.300000
vt 0.125000 0.125000
vt 0.136250 0.136250
vt 0.375000 0.750000
vt 0.875000 0.000000
vt 0.387500 0.616289
vt 0.400000 0.616289
vt 0.400000 0.312500
vt 0.387500 0.312500
vt 0.875000 0.000000
vt 0.875000 0.050000
vt 0.875000 0.050000
vt 0.875000 0.000000
vt 0.863750 0.136250
vt 0.857000 0.068000
vt 0.857000 0.068000
vt 0.863750 0.136250
vt 0.375000 0.700000
vt 0.625000 0.700000
vt 0.625000 0.750000
vt 0.375000 0.616289
vt 0.375000 0.312500
vt 0.550000 0.312500
vt 0.550000 0.312500
vt 0.509495 0.616289
vt 0.509495 0.616289
vt 0.612500 0.616289
vt 0.625000 0.616289
vt 0.625000 0.312500
vt 0.612500 0.312500
vt 0.550000 0.616289
vt 0.562500 0.616289
vt 0.562500 0.312500
vt 0.600000 0.616289
vt 0.600000 0.312500
vt 0.143000 0.068000
vt 0.305000 0.230000
vt 0.587500 0.616289
vt 0.587500 0.312500
vt 0.575000 0.616289
vt 0.575000 0.312500
vt 0.147500 0.022500
vt 0.143000 0.068000
vt 0.143000 0.068000
vt 0.147500 0.022500
vt 0.125000 0.000000
vt 0.147500 0.022500
vt 0.147500 0.022500
vt 0.125000 0.000000
vt 0.325000 0.250000
vt 0.305000 0.230000
vt 0.350000 0.225000
vt 0.375000 0.250000
vt 0.237500 0.237500
vt 0.250000 0.250000
vt 0.750000 0.250000
vt 0.675000 0.250000
vt 0.675000 0.250000
vt 0.750000 0.250000
vt 0.137500 0.250000
vt 0.137343 0.235757
vt 0.857000 0.068000
vt 0.852500 0.022500
vt 0.852500 0.022500
vt 0.857000 0.068000
vt 0.862656 0.235757
vt 0.863750 0.136250
vt 0.863750 0.136250
vt 0.862656 0.235757
vt 0.375000 0.625000
vt 0.625000 0.625000
vt 0.125000 0.125000
vt 0.125000 0.050000
vt 0.125000 0.050000
vt 0.125000 0.125000
vt 0.852500 0.022500
vt 0.875000 0.000000
vt 0.875000 0.000000
vt 0.852500 0.022500
vt 0.250000 0.250000
vt 0.137500 0.250000
vt 0.143000 0.068000
vt 0.136250 0.136250
vt 0.136250 0.136250
vt 0.143000 0.068000
vt 0.125000 0.050000
vt 0.125000 0.050000
vt 0.875000 0.125000
vt 0.875000 0.250000
vt 0.875000 0.250000
vt 0.875000 0.125000
vt 0.650000 0.225000
vt 0.375000 0.300000
vt 0.125000 0.250000
vt 0.125000 0.125000
vt 0.125000 0.125000
vt 0.125000 0.250000
vt 0.857000 0.068000
vt 0.852500 0.022500
vt 0.875000 0.000000
vt 0.875000 0.050000
vt 0.375000 0.500000
vt 0.625000 0.500000
vt 0.237500 0.237500
vt 0.305000 0.230000
vt 0.305000 0.230000
vt 0.237500 0.237500
vt 0.625000 0.250000
vt 0.375000 0.250000
vt 0.695000 0.230000
vt 0.857000 0.068000
vt 0.375000 0.375000
vt 0.375000 0.300000
vt 0.625000 0.300000
vt 0.625000 0.375000
vt 0.625000 0.487500
vt 0.375000 0.487500
vt 0.875000 0.250000
vt 0.862500 0.250000
vt 0.862500 0.250000
vt 0.875000 0.250000
vt 0.863750 0.136250
vt 0.875000 0.125000
vt 0.305000 0.230000
vt 0.350000 0.225000
vt 0.350000 0.225000
vt 0.305000 0.230000
vt 0.350000 0.225000
vt 0.375000 0.250000
vt 0.375000 0.250000
vt 0.350000 0.225000
vt 0.695000 0.230000
vt 0.650000 0.225000
vt 0.136250 0.136250
vt 0.137343 0.235757
vt 0.137343 0.235757
vt 0.136250 0.136250
vt 0.625000 0.250000
vt 0.325000 0.250000
vt 0.250000 0.250000
vt 0.250000 0.250000
vt 0.325000 0.250000
vt 0.137500 0.250000
vt 0.125000 0.250000
vt 0.125000 0.250000
vt 0.137500 0.250000
vt 0.695000 0.230000
vt 0.762500 0.237500
vt 0.762500 0.237500
vt 0.695000 0.230000
vt 0.675000 0.250000
vt 0.675000 0.250000
vt 0.762500 0.237500
vt 0.750000 0.250000
vt 0.325000 0.250000
vt 0.325000 0.250000
vt 0.862656 0.235757
vt 0.862500 0.250000
vt 0.401474 0.616289
vt 0.573526 0.616289
vt 0.125000 0.250000
vt 0.875000 0.250000
vt 0.375000 0.403904
vt 0.375000 0.388593
vt 0.375000 0.382612
vt 0.375000 0.382612
vt 0.375000 0.627024
vt 0.375000 0.627024
vt 0.375000 0.621043
vt 0.375000 0.605732
vt 0.350000 0.225000
vt 0.147500 0.022500
vt 0.197134 0.072134
vt 0.196120 0.074072
vt 0.196625 0.094448
vt 0.207659 0.118239
vt 0.227188 0.142164
vt 0.251207 0.161787
vt 0.275281 0.173103
vt 0.296060 0.174012
vt 0.298048 0.173048
vn -1.000000 0.000001 0.000000
vn -1.000000 -0.000000 0.000000
vn -1.000000 0.000001 0.000000
vn -1.000000 -0.000001 0.000000
vn -1.000000 -0.000000 0.000000
vn -1.000000 0.000000 0.000000
vn -1.000000 0.000000 0.000000
vn -1.000000 0.000000 0.000000
vn -1.000000 -0.000000 0.000000
vn -1.000000 -0.000000 0.000000
vn -1.000000 -0.000000 0.000000
vn -1.000000 -0.000000 0.000000
vn -1.000000 0.000001 0.000000
vn -1.000000 0.000000 0.000000
vn -1.000000 0.000001 0.000000
vn 1.000000 0.000000 0.000000
vn 1.000000 -0.000000 0.000000
vn 1.000000 -0.000000 0.000000
vn 0.000000 -1.000000 0.000000
vn 0.000000 -1.000000 0.000000
vn 0.000000 -1.000000 0.000000
vn 0.000000 -1.000000 0.000000
vn -1.000000 0.000000 0.000000
vn -1.000000 -0.000000 0.000000
vn -1.000000 -0.000000 0.000000
vn -1.000000 0.000000 0.000000
vn 0.000000 -0.041616 0.999134
vn 0.000000 0.000000 1.000000
vn 0.000000 0.000000 1.000000
vn 0.000000 -0.041616 0.999134
vn 0.000000 0.782234 -0.622985
vn 0.000000 0.782234 -0.622985
vn 0.000000 0.782234 -0.622985
vn 0.000000 0.782234 -0.622985
vn 0.000000 -0.717348 0.696715
vn 0.000000 -0.717348 0.696715
vn 0.000000 -0.717348 0.696715
vn 0.000000 -0.717348 0.696715
vn 0.000000 0.000000 -1.000000
vn 0.000000 0.000000 -1.000000
vn 0.000000 0.000000 -1.000000
vn 0.000000 0.000000 -1.000000
vn 0.000000 -0.309017 0.951057
vn 0.000000 -0.309017 0.951057
vn -1.000000 0.000000 0.000000
vn -1.000000 0.000000 0.000000
vn -1.000000 0.000000 0.000000
vn -1.000000 0.000000 0.000000
vn 0.000000 -1.000000 -0.000001
vn 0.000000 -1.000000 -0.000001
vn 0.000000 -1.000000 -0.000001
vn 0.000000 -1.000000 -0.000001
vn -1.000000 -0.000001 0.000000
vn -1.000000 -0.000001 0.000000
vn 0.000000 -1.000000 0.000000
vn 0.000000 -1.000000 0.000000
vn 0.000000 -1.000000 0.000000
vn 0.000000 -1.000000 0.000000
vn 0.000000 -0.809017 0.587785
vn 0.000000 -0.587785 0.809017
vn 0.000000 -0.587785 0.809017
vn 0.000000 -0.809017 0.587785
vn 0.000000 0.709735 -0.704469
vn 0.000000 0.709735 -0.704469
vn 0.000000 0.709735 -0.704469
vn 0.000000 0.709735 -0.704469
vn 0.000000 -0.636900 0.770947
vn 0.000000 -0.636900 0.770947
vn 0.000000 -0.636900 0.770947
vn 0.000000 -0.636900 0.770947
vn 0.000000 0.742323 -0.670042
vn 0.000000 0.742323 -0.670042
vn 0.000000 0.782234 -0.622985
vn 0.000000 0.782234 -0.622985
vn 0.000000 -0.951056 0.309018
vn 0.000000 -0.951056 0.309018
vn -1.000000 0.000000 0.000000
vn -1.000000 0.000000 0.000000
vn -1.000000 0.000000 0.000000
vn -1.000000 0.000000 0.000000
vn 0.000000 0.000000 -1.000000
vn 0.000000 -0.041616 -0.999134
vn 0.000000 -0.041616 -0.999134
vn 0.000000 0.000000 -1.000000
vn 0.000000 -1.000000 0.000000
vn 0.000000 -1.000000 0.000000
vn 0.000000 -0.309017 -0.951057
vn 0.000000 -0.309017 -0.951057
vn 0.000000 -0.951056 -0.309018
vn 0.000000 -0.951056 -0.309018
vn -1.000000 -0.000000 0.000000
vn -1.000000 -0.000000 0.000000
vn 0.000000 -0.809017 -0.587785
vn 0.000000 -0.809017 -0.587785
vn 0.000000 -0.587785 -0.809017
vn 0.000000 -0.587785 -0.809017
vn 0.000000 -0.622637 0.782511
vn 0.000000 -0.622637 0.782511
vn 0.000000 -0.622637 0.782511
vn 0.000000 -0.622637 0.782511
vn 0.000000 0.614246 -0.789115
vn 0.000000 0.614246 -0.789115
vn 0.000000 0.614246 -0.789115
vn 0.000000 0.614246 -0.789115
vn -1.000000 -0.000000 0.000000
vn -1.000000 -0.000000 0.000000
vn -1.000000 0.000000 0.000000
vn -1.000000 0.000000 0.000000
vn -1.000000 -0.000001 0.000000
vn -1.000000 -0.000000 0.000000
vn 0.000000 -0.708691 -0.705519
vn 0.000000 -0.708691 -0.705519
vn 0.000000 -0.708691 -0.705519
vn 0.000000 -0.708691 -0.705519
vn -1.000000 -0.000002 0.000000
vn -1.000000 -0.000002 0.000000
vn 0.000000 -0.627530 -0.778592
vn 0.000000 -0.627530 -0.778592
vn 0.000000 -0.627530 -0.778592
vn 0.000000 -0.627530 -0.778592
vn 0.000000 -1.000000 0.000000
vn 0.000000 -1.000000 0.000000
vn 0.000000 -1.000000 0.000000
vn 0.000000 -1.000000 0.000000
vn 0.000000 0.670778 -0.741658
vn 0.000000 0.670778 -0.741658
vn 0.000000 -1.000000 0.000000
vn 0.000000 -1.000000 0.000000
vn 0.000000 -1.000000 0.000000
vn 0.000000 -1.000000 0.000000
vn 0.000000 -0.627525 -0.778596
vn 0.000000 -0.627525 -0.778596
vn 0.000000 -0.627525 -0.778596
vn 0.000000 -0.627525 -0.778596
vn 0.000000 0.709735 0.704469
vn 0.000000 0.709735 0.704469
vn 0.000000 0.709735 0.704469
vn 0.000000 0.709735 0.704469
vn 0.000000 0.614242 0.789118
vn 0.000000 0.614242 0.789118
vn 0.000000 0.614242 0.789118
vn 0.000000 0.614242 0.789118
vn 0.000000 0.782233 0.622986
vn 0.000000 0.782233 0.622986
vn 0.000000 0.782233 0.622986
vn 0.000000 0.782233 0.622986
vn 0.000000 0.614252 0.789110
vn 0.000000 0.614252 0.789110
vn 0.000000 0.614252 0.789110
vn 0.000000 0.614252 0.789110
vn 0.000000 0.782234 -0.622985
vn 0.000000 0.782234 -0.622985
vn 0.000000 0.782234 -0.622985
vn 0.000000 0.782234 -0.622985
vn 1.000000 0.000000 0.000000
vn 1.000000 0.000000 0.000000
vn 1.000000 0.000000 0.000000
vn 1.000000 0.000000 0.000000
vn 0.000000 -0.000000 1.000000
vn 0.000000 -0.000000 1.000000
vn 0.000000 -0.000000 1.000000
vn 0.000000 -0.000000 1.000000
vn 0.000000 -0.717348 0.696715
vn 0.000000 -0.717348 0.696715
vn 0.000000 -0.717348 0.696715
vn 0.000000 -0.717348 0.696715
vn 1.000000 0.000000 0.000000
vn 1.000000 0.000000 0.000000
vn 1.000000 0.000000 0.000000
vn 1.000000 0.000000 0.000000
vn 0.000000 0.614245 -0.789115
vn 0.000000 0.614245 -0.789115
vn 0.000000 0.709735 -0.704469
vn 0.000000 0.709735 -0.704469
vn 0.000000 0.709735 -0.704469
vn 0.000000 0.709735 -0.704469
vn 0.000000 -1.000000 0.000000
vn 0.000000 -1.000000 0.000000
vn 0.000000 -1.000000 0.000000
vn 0.000000 -1.000000 0.000000
vn 1.000000 0.000000 0.000000
vn 1.000000 0.000000 0.000000
vn 1.000000 0.000000 0.000000
vn 1.000000 0.000000 0.000000
vn 0.000000 0.673188 0.739472
vn 0.000000 0.742323 0.670042
vn 0.000000 0.742323 0.670042
vn 0.000000 0.673188 0.739472
vn 0.000000 0.614243 0.789117
vn 0.000000 0.614243 0.789117
vn 0.000000 0.782233 0.622986
vn 0.000000 0.782233 0.622986
vn 0.000000 -0.636899 0.770947
vn 0.000000 -0.636899 0.770947
vn 0.000000 -0.636899 0.770947
vn 0.000000 -0.636899 0.770947
vn 0.000000 0.614258 0.789105
vn 0.000000 0.614258 0.789105
vn 1.000000 -0.000000 0.000000
vn 1.000000 -0.000000 0.000000
vn 0.000000 -0.622638 0.782510
vn 0.000000 -0.622638 0.782510
vn 0.000000 -0.622638 0.782510
vn 0.000000 -0.622638 0.782510
vn 0.000000 0.614244 -0.789116
vn 0.000000 0.614244 -0.789116
vn 0.000000 0.614244 -0.789116
vn 0.000000 0.614244 -0.789116
vn 0.000000 -0.708692 -0.705518
vn 0.000000 -0.708692 -0.705518
vn 0.000000 -0.708692 -0.705518
vn 0.000000 -0.708692 -0.705518
vn 0.000000 -0.627530 -0.778593
vn 0.000000 -0.627530 -0.778593
vn 0.000000 -0.627530 -0.778593
vn 0.000000 -0.627530 -0.778593
vn 0.000000 -1.000000 0.000000
vn 0.000000 -1.000000 0.000000
vn 0.000000 -1.000000 0.000000
vn 0.000000 -1.000000 0.000000
vn 0.000000 -0.627526 -0.778596
vn 0.000000 -0.627526 -0.778596
vn 0.000000 -0.627526 -0.778596
vn 0.000000 -0.627526 -0.778596
vn 0.000000 0.709735 0.704469
vn 0.000000 0.709735 0.704469
vn 0.000000 0.709735 0.704469
vn 0.000000 0.709735 0.704469
vn 0.000000 0.614242 0.789118
vn 0.000000 0.614242 0.789118
vn 0.000000 0.614242 0.789118
vn 0.000000 0.614242 0.789118
vn 0.000000 0.782234 0.622985
vn 0.000000 0.782234 0.622985
vn 0.000000 0.782234 0.622985
vn 0.000000 0.782234 0.622985
vn 1.000000 0.000000 0.000000
vn 1.000000 0.000000 0.000000
vn 1.000000 0.000000 0.000000
vn 1.000000 0.000000 0.000000
vn 1.000000 0.000000 0.000000
vn 1.000000 0.000000 0.000000
vn 0.000000 0.614238 0.789121
vn 0.000000 0.614238 0.789121
vn 0.000000 0.614238 0.789121
vn 0.000000 0.614238 0.789121
vn 1.000000 -0.000000 0.000000
vn 1.000000 -0.000000 0.000000
vn 0.000000 1.000000 0.000000
vn 0.000000 1.000000 0.000000
vn 0.000000 1.000000 0.000000
vn 0.000000 1.000000 0.000000
vn 0.000000 1.000000 0.000000
vn 0.000000 -0.453990 0.891007
vn 0.000000 -0.453990 -0.891007
vn -1.000000 -0.000002 0.000000
vn 1.000000 -0.000000 0.000000
vn -1.000000 -0.000000 0.000000
vn -1.000000 -0.000000 0.000000
vn -1.000000 0.000000 0.000000
vn -1.000000 0.000000 0.000000
vn -1.000000 0.000000 0.000000
vn -1.000000 0.000000 0.000000
vn -1.000000 0.000000 0.000000
vn -1.000000 0.000000 0.000000
vn -1.000000 -0.000000 0.000000
vn -1.000000 -0.000000 0.000000
vn -1.000000 0.000000 0.000000
vn -1.000000 0.000000 0.000000
vn -1.000000 -0.000001 0.000000
vn -1.000000 -0.000001 0.000000
vn -1.000000 -0.000001 0.000000
vn -1.000000 -0.000001 0.000000
vn -1.000000 -0.000001 0.000000
vn -1.000000 -0.000001 0.000000
vn -1.000000 -0.000001 0.000000
s 1
g RoofWindow
usemtl initialShadingGroup
f 1/1/1 2/2/2 3/3/3
f 3/3/3 2/2/2 4/4/4
f 4/4/4 2/2/2 5/5/5
f 5/5/5 2/2/2 6/6/6
f 6/6/6 2/2/2 7/7/7
f 8/8/8 2/2/2 9/9/9
f 7/7/7 2/2/2 10/10/10
f 11/11/11 2/2/2 8/8/8
f 10/10/10 2/2/2 12/12/12
f 12/12/12 2/2/2 11/11/11
s 3
f 13/13/13 14/14/14 15/15/15
s 4
f 16/16/16 17/17/17 18/18/18
s off
f 19/19/19 20/20/20 21/21/21 22/22/22
s 5
f 21/23/23 23/24/24 24/25/25 22/26/26
s 6
f 25/27/27 26/28/28 27/29/29 1/1/30
s off
f 28/30/31 19/31/32 22/32/33 24/33/34
f 20/34/35 29/35/36 23/36/37 21/37/38
f 20/38/39 30/39/40 31/40/41 32/41/42
s 6
f 33/42/43 25/43/27 1/44/30 3/45/44
s off
f 1/1/45 27/29/46 34/46/47 2/2/48
f 35/47/49 36/48/50 32/41/51 31/40/52
s 5
f 37/49/53 24/25/25 23/24/24 38/50/54
s off
f 30/39/55 20/38/56 19/51/57 39/52/58
s 6
f 40/53/59 41/54/60 4/55/61 5/56/62
s off
f 42/57/63 28/58/64 24/59/65 37/60/66
f 29/61/67 15/62/68 38/63/69 23/64/70
s 7
f 28/65/71 43/66/72 39/67/73 19/51/74
s 6
f 44/68/75 40/53/59 5/56/62 6/69/76
s off
f 2/2/77 34/46/78 45/70/79 9/71/80
s 6
f 46/72/81 47/73/82 9/71/83 45/70/84
f 48/74/85 44/75/75 6/76/76 7/77/86
f 47/78/82 49/79/87 8/80/88 9/71/83
f 50/81/89 48/74/85 7/77/86 10/82/90
s 3
f 15/15/15 29/83/91 51/84/92 13/13/13
s 6
f 52/85/93 50/81/89 10/82/90 12/86/94
f 53/87/95 52/85/93 12/86/94 11/88/96
s off
f 15/89/97 14/90/98 54/91/99 38/92/100
f 55/93/101 42/94/102 37/95/103 56/96/104
s 5
f 57/97/105 58/98/106 59/99/107 60/100/108
f 61/101/109 58/98/106 57/97/105 62/102/110
s off
f 51/103/111 63/104/112 59/105/113 58/106/114
s 5
f 64/107/115 54/108/116 61/101/109 62/102/110
s off
f 13/109/117 51/110/118 58/111/119 61/112/120
f 30/113/121 39/114/122 65/115/123 66/116/124
s 7
f 42/117/125 67/118/126 43/66/72 28/65/71
s off
f 63/119/127 68/120/128 60/121/129 59/122/130
f 14/14/131 13/13/132 61/101/133 54/108/134
f 69/123/135 70/124/136 62/125/137 57/126/138
f 70/127/139 71/128/140 64/107/141 62/102/142
f 68/129/143 69/130/144 57/131/145 60/132/146
f 71/133/147 55/93/148 56/96/149 64/134/150
f 39/135/151 43/136/152 72/137/153 65/138/154
f 30/39/155 73/139/156 35/47/157 31/40/158
f 73/139/159 63/140/160 36/48/161 35/47/162
f 74/141/163 30/142/164 66/143/165 75/144/166
s 10
f 75/145/167 66/146/168 65/147/169 72/148/170
s 7
f 55/149/171 76/150/172 67/118/126 42/117/125
s off
f 43/151/173 67/152/174 77/153/175 72/154/176
f 78/155/177 68/156/178 63/140/179 73/139/180
s 4
f 79/157/181 73/139/182 30/39/183 74/158/184
s 11
f 70/159/185 69/160/186 80/161/187 81/162/188
f 70/159/185 81/162/188 82/163/189 71/164/190
f 80/161/187 69/160/186 68/156/191 78/155/192
s off
f 18/165/193 74/166/194 75/167/195 83/168/196
s 11
f 71/164/190 82/163/189 76/150/197 55/149/198
s 10
f 83/169/199 75/145/167 72/148/170 77/170/200
s 4
f 17/17/17 79/157/181 74/158/184 18/18/18
s off
f 16/171/201 18/172/202 83/173/203 84/174/204
f 67/175/205 76/176/206 85/177/207 77/178/208
f 73/139/209 79/157/210 86/179/211 87/180/212
f 79/181/213 17/182/214 88/183/215 86/184/216
f 78/155/217 73/139/218 87/180/219 89/185/220
f 17/186/221 16/187/222 84/188/223 88/189/224
f 81/190/225 80/191/226 90/192/227 91/193/228
f 82/194/229 81/195/230 91/196/231 92/197/232
f 80/198/233 78/155/234 89/185/235 90/199/236
s 10
f 89/185/237 87/180/238 86/179/239 90/199/240
f 90/199/240 86/179/239 88/200/241 91/201/242
s off
f 76/176/243 82/202/244 92/203/245 85/177/246
s 10
f 91/201/242 88/200/241 84/204/247 92/205/248
s off
f 26/28/249 46/72/250 45/70/251 34/46/252 27/29/253
s 6
f 4/55/61 41/54/60 93/206/254 33/42/43 3/45/44
f 8/80/88 49/79/87 94/207/255 53/87/95 11/88/96
s 5
f 37/49/53 38/50/54 54/108/116 64/107/115 56/208/256
s 10
f 92/205/248 84/204/247 83/169/199 77/170/200 85/209/257
s 3
f 63/140/258 94/210/259 49/211/260 47/212/261 46/213/262 26/214/263 25/215/264 33/216/265 93/217/266 20/38/267 32/41/268 36/48/269
f 63/218/258 51/84/92 29/83/91 20/219/267 93/220/266 41/221/270 40/222/271 44/223/272 48/224/273 50/225/274 52/226/275 53/227/276 94/228/259
