# This file uses centimeters as units for non-parametric coordinates.

mtllib Crate.mtl
g default
v -3.756803 0.243197 3.756803
v 3.756803 0.243197 3.756803
v -3.756803 7.756803 3.756803
v 3.756803 7.756803 3.756803
v -3.756803 7.756803 -3.756803
v 3.756803 7.756803 -3.756803
v -3.756803 0.243197 -3.756803
v 3.756803 0.243197 -3.756803
v 3.756803 1.243197 -2.756803
v 3.756803 1.243197 2.756803
v 3.756803 6.756803 -2.756803
v 3.756803 6.756803 2.756803
v -3.756803 1.243197 -2.756803
v -3.756803 1.243197 2.756803
v -3.756803 6.756803 2.756803
v -3.756803 6.756803 -2.756803
v -2.756803 1.243197 3.756803
v 2.756803 1.243197 3.756803
v 2.756803 6.756803 3.756803
v -2.756803 6.756803 3.756803
v -2.756803 7.756803 2.756803
v 2.756803 7.756803 2.756803
v 2.756803 7.756803 -2.756803
v -2.756803 7.756803 -2.756803
v -2.756803 6.756803 -3.756803
v 2.756803 6.756803 -3.756803
v 2.756803 1.243197 -3.756803
v -2.756803 1.243197 -3.756803
v -2.756803 0.243197 -2.756803
v 2.756803 0.243197 -2.756803
v 2.756803 0.243197 2.756803
v -2.756803 0.243197 2.756803
v -2.489832 1.510167 3.392992
v 2.489832 1.510167 3.392992
v 2.489832 6.489832 3.392992
v -2.489832 6.489832 3.392992
v -2.489832 7.392992 2.489832
v 2.489832 7.392992 2.489832
v 2.489832 7.392992 -2.489832
v -2.489832 7.392992 -2.489832
v -2.489832 6.489832 -3.392992
v 2.489832 6.489832 -3.392992
v 2.489832 1.510167 -3.392992
v -2.489832 1.510167 -3.392992
v -2.489832 0.607008 -2.489832
v 2.489832 0.607008 -2.489832
v 2.489832 0.607008 2.489832
v -2.489832 0.607008 2.489832
v 3.392992 1.510167 -2.489832
v 3.392992 1.510167 2.489832
v 3.392992 6.489832 -2.489832
v 3.392992 6.489832 2.489832
v -3.392992 1.510167 -2.489832
v -3.392992 1.510167 2.489832
v -3.392992 6.489832 2.489832
v -3.392992 6.489832 -2.489832
vt 0.518072 0.171822
vt 0.656499 0.270362
vt 0.557959 0.408788
vt 0.419533 0.310248
vt 0.507924 0.111530
vt 0.716790 0.260213
vt 0.669203 0.268223
vt 0.515934 0.159117
vt 0.568108 0.469079
vt 0.560097 0.421492
vt 0.359241 0.320397
vt 0.406828 0.312387
vt 0.479718 0.667797
vt 0.578257 0.529369
vt 0.716684 0.627908
vt 0.618145 0.766336
vt 0.419427 0.677945
vt 0.576118 0.516665
vt 0.467014 0.669935
vt 0.776975 0.617759
vt 0.729388 0.625770
vt 0.628294 0.826627
vt 0.620284 0.779040
vt 0.061983 0.370435
vt 0.160522 0.232007
vt 0.298950 0.330546
vt 0.200411 0.468973
vt 0.001692 0.380583
vt 0.150374 0.171716
vt 0.158384 0.219303
vt 0.049279 0.372573
vt 0.311654 0.328408
vt 0.210559 0.529264
vt 0.202549 0.481678
vt 0.260598 0.826522
vt 0.122170 0.727984
vt 0.220708 0.589556
vt 0.359136 0.688094
vt 0.270747 0.886813
vt 0.061879 0.738133
vt 0.109466 0.730122
vt 0.262737 0.839226
vt 0.218570 0.576852
vt 0.371841 0.685955
vt 0.270851 0.519115
vt 0.369390 0.380688
vt 0.507817 0.479227
vt 0.409278 0.617655
vt 0.688585 0.816478
vt 0.787124 0.678050
vt 0.925551 0.776589
vt 0.827013 0.915017
vt 0.367251 0.367984
vt 0.258147 0.521254
vt 0.520521 0.477088
vt 0.411417 0.630359
vt 0.784985 0.665346
vt 0.675881 0.818617
vt 0.985842 0.766440
vt 0.938256 0.774450
vt 0.837161 0.975308
vt 0.829151 0.927721
vn 0.000000 0.000000 1.000000
vn 0.000000 0.000000 1.000000
vn 0.000000 0.000000 1.000000
vn 0.000000 0.000000 1.000000
vn 0.000000 1.000000 0.000000
vn 0.000000 1.000000 0.000000
vn 0.000000 1.000000 0.000000
vn 0.000000 1.000000 0.000000
vn 0.000000 0.000000 -1.000000
vn 0.000000 0.000000 -1.000000
vn 0.000000 0.000000 -1.000000
vn 0.000000 0.000000 -1.000000
vn 0.000000 -1.000000 0.000000
vn 0.000000 -1.000000 0.000000
vn 0.000000 -1.000000 0.000000
vn 0.000000 -1.000000 0.000000
vn 1.000000 0.000000 0.000000
vn 1.000000 0.000000 0.000000
vn 1.000000 0.000000 0.000000
vn 1.000000 0.000000 0.000000
vn -1.000000 0.000000 0.000000
vn -1.000000 0.000000 0.000000
vn -1.000000 0.000000 0.000000
vn -1.000000 0.000000 0.000000
vn 1.000000 -0.000000 0.000000
vn 1.000000 -0.000000 0.000000
vn 1.000000 -0.000000 0.000000
vn 1.000000 -0.000000 0.000000
vn 1.000000 0.000000 0.000000
vn 1.000000 0.000000 0.000000
vn 1.000000 0.000000 0.000000
vn 1.000000 0.000000 0.000000
vn -1.000000 -0.000000 0.000000
vn -1.000000 -0.000000 0.000000
vn -1.000000 -0.000000 0.000000
vn -1.000000 -0.000000 0.000000
vn -1.000000 0.000000 0.000000
vn -1.000000 0.000000 0.000000
vn -1.000000 0.000000 0.000000
vn -1.000000 0.000000 0.000000
vn -0.000000 0.000000 1.000000
vn 0.000000 0.000000 1.000000
vn 0.000000 0.000000 1.000000
vn -0.000000 0.000000 1.000000
vn 0.000000 0.000000 1.000000
vn 0.000000 0.000000 1.000000
vn -0.000000 0.000000 1.000000
vn -0.000000 0.000000 1.000000
vn 0.000000 1.000000 -0.000000
vn 0.000000 1.000000 -0.000000
vn 0.000000 1.000000 -0.000000
vn 0.000000 1.000000 -0.000000
vn 0.000000 1.000000 0.000000
vn 0.000000 1.000000 0.000000
vn 0.000000 1.000000 0.000000
vn 0.000000 1.000000 0.000000
vn -0.000000 0.000000 -1.000000
vn 0.000000 0.000000 -1.000000
vn 0.000000 0.000000 -1.000000
vn -0.000000 0.000000 -1.000000
vn 0.000000 0.000000 -1.000000
vn 0.000000 0.000000 -1.000000
vn -0.000000 0.000000 -1.000000
vn -0.000000 0.000000 -1.000000
vn 0.000000 -1.000000 0.000000
vn 0.000000 -1.000000 0.000000
vn 0.000000 -1.000000 0.000000
vn 0.000000 -1.000000 0.000000
vn 0.000000 -1.000000 -0.000000
vn 0.000000 -1.000000 -0.000000
vn 0.000000 -1.000000 -0.000000
vn 0.000000 -1.000000 -0.000000
vn 0.000000 0.806219 0.591617
vn 0.000000 0.806219 0.591617
vn 0.000000 0.806219 0.591617
vn 0.000000 0.806219 0.591617
vn -0.806219 0.000000 0.591617
vn -0.806219 0.000000 0.591617
vn -0.806219 0.000000 0.591617
vn -0.806219 0.000000 0.591617
vn 0.000000 -0.806219 0.591617
vn 0.000000 -0.806219 0.591617
vn 0.000000 -0.806219 0.591617
vn 0.000000 -0.806219 0.591617
vn 0.806219 0.000000 0.591617
vn 0.806219 0.000000 0.591617
vn 0.806219 0.000000 0.591617
vn 0.806219 0.000000 0.591617
vn 0.000000 0.591618 -0.806219
vn 0.000000 0.591618 -0.806219
vn 0.000000 0.591618 -0.806219
vn 0.000000 0.591618 -0.806219
vn -0.806219 0.591617 0.000000
vn -0.806219 0.591617 0.000000
vn -0.806219 0.591617 0.000000
vn -0.806219 0.591617 0.000000
vn 0.000000 0.591618 0.806219
vn 0.000000 0.591618 0.806219
vn 0.000000 0.591618 0.806219
vn 0.000000 0.591618 0.806219
vn 0.806219 0.591617 0.000000
vn 0.806219 0.591617 0.000000
vn 0.806219 0.591617 0.000000
vn 0.806219 0.591617 0.000000
vn 0.000000 -0.806219 -0.591617
vn 0.000000 -0.806219 -0.591617
vn 0.000000 -0.806219 -0.591617
vn 0.000000 -0.806219 -0.591617
vn -0.806219 0.000000 -0.591617
vn -0.806219 0.000000 -0.591617
vn -0.806219 0.000000 -0.591617
vn -0.806219 0.000000 -0.591617
vn 0.000000 0.806219 -0.591617
vn 0.000000 0.806219 -0.591617
vn 0.000000 0.806219 -0.591617
vn 0.000000 0.806219 -0.591617
vn 0.806219 0.000000 -0.591617
vn 0.806219 0.000000 -0.591617
vn 0.806219 0.000000 -0.591617
vn 0.806219 0.000000 -0.591617
vn 0.000000 -0.591617 0.806219
vn 0.000000 -0.591617 0.806219
vn 0.000000 -0.591617 0.806219
vn 0.000000 -0.591617 0.806219
vn -0.806219 -0.591617 0.000000
vn -0.806219 -0.591617 0.000000
vn -0.806219 -0.591617 0.000000
vn -0.806219 -0.591617 0.000000
vn 0.000000 -0.591617 -0.806219
vn 0.000000 -0.591617 -0.806219
vn 0.000000 -0.591617 -0.806219
vn 0.000000 -0.591617 -0.806219
vn 0.806219 -0.591617 0.000000
vn 0.806219 -0.591617 0.000000
vn 0.806219 -0.591617 0.000000
vn 0.806219 -0.591617 0.000000
vn 0.591617 0.806219 0.000000
vn 0.591617 0.806219 0.000000
vn 0.591617 0.806219 0.000000
vn 0.591617 0.806219 0.000000
vn 0.591617 0.000000 0.806219
vn 0.591617 0.000000 0.806219
vn 0.591617 0.000000 0.806219
vn 0.591617 0.000000 0.806219
vn 0.591618 -0.806219 0.000000
vn 0.591618 -0.806219 0.000000
vn 0.591618 -0.806219 0.000000
vn 0.591618 -0.806219 0.000000
vn 0.591617 0.000000 -0.806219
vn 0.591617 0.000000 -0.806219
vn 0.591617 0.000000 -0.806219
vn 0.591617 0.000000 -0.806219
vn -0.591617 0.806219 0.000000
vn -0.591617 0.806219 0.000000
vn -0.591617 0.806219 0.000000
vn -0.591617 0.806219 0.000000
vn -0.591617 0.000000 -0.806219
vn -0.591617 0.000000 -0.806219
vn -0.591617 0.000000 -0.806219
vn -0.591617 0.000000 -0.806219
vn -0.591618 -0.806219 0.000000
vn -0.591618 -0.806219 0.000000
vn -0.591618 -0.806219 0.000000
vn -0.591618 -0.806219 0.000000
vn -0.591617 0.000000 0.806219
vn -0.591617 0.000000 0.806219
vn -0.591617 0.000000 0.806219
vn -0.591617 0.000000 0.806219
s off
g pCube1
usemtl initialShadingGroup
f 33/24/1 34/25/2 35/26/3 36/27/4
f 37/45/5 38/46/6 39/47/7 40/48/8
f 41/13/9 42/14/10 43/15/11 44/16/12
f 45/49/13 46/50/14 47/51/15 48/52/16
f 50/1/17 49/2/18 51/3/19 52/4/20
f 53/35/21 54/36/22 55/37/23 56/38/24
s 1
f 2/5/25 8/6/26 9/7/27 10/8/28
f 8/6/26 6/9/29 11/10/30 9/7/27
f 6/9/29 4/11/31 12/12/32 11/10/30
f 4/11/31 2/5/25 10/8/28 12/12/32
s 2
f 7/39/33 1/40/34 14/41/35 13/42/36
f 1/40/34 3/33/37 15/43/38 14/41/35
f 3/33/37 5/17/39 16/44/40 15/43/38
f 5/17/39 7/39/33 13/42/36 16/44/40
s 3
f 1/28/41 2/29/42 18/30/43 17/31/44
f 2/29/42 4/11/45 19/32/46 18/30/43
f 4/11/45 3/33/47 20/34/48 19/32/46
f 3/33/47 1/28/41 17/31/44 20/34/48
s 4
f 3/33/49 4/11/50 22/53/51 21/54/52
f 4/11/50 6/9/53 23/55/54 22/53/51
f 6/9/53 5/17/55 24/56/56 23/55/54
f 5/17/55 3/33/49 21/54/52 24/56/56
s 5
f 5/17/57 6/9/58 26/18/59 25/19/60
f 6/9/58 8/20/61 27/21/62 26/18/59
f 8/20/61 7/22/63 28/23/64 27/21/62
f 7/22/63 5/17/57 25/19/60 28/23/64
s 6
f 7/22/65 8/20/66 30/57/67 29/58/68
f 8/20/66 2/59/69 31/60/70 30/57/67
f 2/59/69 1/61/71 32/62/72 31/60/70
f 1/61/71 7/22/65 29/58/68 32/62/72
s off
f 17/31/73 18/30/74 34/25/75 33/24/76
f 18/30/77 19/32/78 35/26/79 34/25/80
f 19/32/81 20/34/82 36/27/83 35/26/84
f 20/34/85 17/31/86 33/24/87 36/27/88
f 21/54/89 22/53/90 38/46/91 37/45/92
f 22/53/93 23/55/94 39/47/95 38/46/96
f 23/55/97 24/56/98 40/48/99 39/47/100
f 24/56/101 21/54/102 37/45/103 40/48/104
f 25/19/105 26/18/106 42/14/107 41/13/108
f 26/18/109 27/21/110 43/15/111 42/14/112
f 27/21/113 28/23/114 44/16/115 43/15/116
f 28/23/117 25/19/118 41/13/119 44/16/120
f 29/58/121 30/57/122 46/50/123 45/49/124
f 30/57/125 31/60/126 47/51/127 46/50/128
f 31/60/129 32/62/130 48/52/131 47/51/132
f 32/62/133 29/58/134 45/49/135 48/52/136
f 10/8/137 9/7/138 49/2/139 50/1/140
f 9/7/141 11/10/142 51/3/143 49/2/144
f 11/10/145 12/12/146 52/4/147 51/3/148
f 12/12/149 10/8/150 50/1/151 52/4/152
f 13/42/153 14/41/154 54/36/155 53/35/156
f 14/41/157 15/43/158 55/37/159 54/36/160
f 15/43/161 16/44/162 56/38/163 55/37/164
f 16/44/165 13/42/166 53/35/167 56/38/168
